<svg xmlns="http://www.w3.org/2000/svg" xmlns:xlink="http://www.w3.org/1999/xlink" version="1.1" id="Your_Icon" x="0px" y="0px" width="100px" height="100px" viewBox="0 0 100 100" enable-background="new 0 0 100 100" xml:space="preserve">
<path fill="#000000" d="M71.608,47.896C70.133,43.488,66,37.678,59,34.842v6.844c7,3.34,6.97,9.162,7.034,9.491l0.456,2.212  l2.242,0.309c0.542,0.076,13.241,2.077,13.241,12.314C81.974,76.554,75.14,80,73.598,80H26.072c-1.582,0-8.034-2.538-8.034-9.98  c0-9.064,8.98-10.329,9.986-10.437L31,59.253v-2.838c0-1.893,3-12.777,13-16.072v-6.559c-13,2.745-17.787,13.628-19.019,19.97  c-5.531,1.393-13.156,5.885-13.156,16.141c0,10.667,8.731,15.159,13.379,16.043l49.215,0.055l0.332-0.079  c4.663-1.079,13.445-6.653,13.445-20.026C88.197,54.571,78.285,49.433,71.608,47.896z"/>
<path fill="#000000" d="M44.782,30C45.821,30,47,31.65,47,32.69v20.363C47,54.093,47.552,55,48.591,55h5.681  C55.314,55,56,54.093,56,53.054V32.703C56,31.662,56.655,30,57.701,30h1.768c1.045,0,1.563-0.332,1.048-1.236L52.44,14.727  c-0.515-0.905-1.347-0.809-1.877,0.089L42.219,28.71C41.691,29.609,42.112,30,43.154,30H44.782z"/>
</svg>
