<svg xmlns="http://www.w3.org/2000/svg" xmlns:xlink="http://www.w3.org/1999/xlink" version="1.1" id="Your_Icon" x="0px" y="0px" width="100px" height="100px" viewBox="0 0 100 100" enable-background="new 0 0 100 100" xml:space="preserve">
<path fill="#000000" d="M12.14,0l-1.341,1.533v96.601l1.341,1.533H87.66l1.34-1.15V0.958L87.275,0H12.14z M16.357,5.367h67.084  v89.125H16.357V5.367z"/>
<rect x="59.484" y="9.583" fill="#000000" width="19.551" height="13.033"/>
<rect x="20.19" y="9.583" fill="#000000" width="34.501" height="1.15"/>
<rect x="20.19" y="17.633" fill="#000000" width="34.501" height="1.15"/>
<rect x="20.19" y="25.875" fill="#000000" width="58.843" height="1.15"/>
<rect x="20.19" y="33.542" fill="#000000" width="58.843" height="1.15"/>
<rect x="20.19" y="41.017" fill="#000000" width="58.843" height="1.15"/>
<rect x="20.19" y="49.066" fill="#000000" width="58.843" height="1.15"/>
<rect x="20.19" y="56.734" fill="#000000" width="58.843" height="1.149"/>
<rect x="20.19" y="64.209" fill="#000000" width="58.843" height="1.15"/>
<rect x="20.477" y="71.3" fill="#000000" width="58.843" height="1.15"/>
<rect x="20.477" y="78.967" fill="#000000" width="58.843" height="1.15"/>
<rect x="20.477" y="86.442" fill="#000000" width="58.843" height="1.149"/>
</svg>